<svg width="23" height="20" viewBox="0 0 23 20" fill="none" xmlns="http://www.w3.org/2000/svg">
<path d="M10.2168 18.94L15.7468 13.4C16.1168 13.03 16.3268 12.52 16.3268 11.99V2C16.3268 0.9 15.4268 0 14.3268 0H5.33681C4.53681 0 3.81681 0.48 3.50681 1.21L0.246814 8.82C-0.603186 10.8 0.846814 13 2.99681 13H8.64681L7.69681 17.58C7.59681 18.08 7.74681 18.59 8.10681 18.95C8.69681 19.53 9.63681 19.53 10.2168 18.94ZM20.3368 0C19.2368 0 18.3368 0.9 18.3368 2V10C18.3368 11.1 19.2368 12 20.3368 12C21.4368 12 22.3368 11.1 22.3368 10V2C22.3368 0.9 21.4368 0 20.3368 0Z" fill="#797979"/>
</svg>
