<svg width="25" height="25" viewBox="0 0 25 25" fill="none" xmlns="http://www.w3.org/2000/svg">
<mask id="mask0_52_4745" style="mask-type:luminance" maskUnits="userSpaceOnUse" x="0" y="0" width="25" height="25">
<rect x="0.333008" y="0.666992" width="24" height="24" fill="white"/>
</mask>
<g mask="url(#mask0_52_4745)">
<path fill-rule="evenodd" clip-rule="evenodd" d="M12.333 3.16699C7.08631 3.16699 2.83302 7.42027 2.83301 12.667C2.83299 17.9137 7.08627 22.167 12.333 22.167C17.5797 22.167 21.833 17.9137 21.833 12.667C21.833 7.42034 17.5798 3.16703 12.3331 3.16699H12.333Z" fill="#039BE5"/>
<path fill-rule="evenodd" clip-rule="evenodd" d="M13.619 15.1849H16.0775L16.4635 12.6874H13.6185V11.3224C13.6185 10.2849 13.9575 9.36488 14.928 9.36488H16.4875V7.18538C16.2135 7.14838 15.634 7.06738 14.539 7.06738C12.2525 7.06738 10.912 8.27488 10.912 11.0259V12.6874H8.56152V15.1849H10.912V22.0494C11.3775 22.1194 11.849 22.1669 12.333 22.1669C12.7705 22.1669 13.1975 22.1269 13.619 22.0699V15.1849Z" fill="white"/>
</g>
</svg>
