<svg width="25" height="25" viewBox="0 0 25 25" fill="none" xmlns="http://www.w3.org/2000/svg">
<mask id="mask0_52_4737" style="mask-type:luminance" maskUnits="userSpaceOnUse" x="0" y="0" width="25" height="25">
<rect x="0.333008" y="0.666992" width="24" height="24" fill="white"/>
</mask>
<g mask="url(#mask0_52_4737)">
<path fill-rule="evenodd" clip-rule="evenodd" d="M22.1385 10.7085H21.333V10.667H12.333V14.667H17.9845C17.16 16.9955 14.9445 18.667 12.333 18.667C9.01951 18.667 6.33301 15.9805 6.33301 12.667C6.33301 9.35349 9.01951 6.66699 12.333 6.66699C13.8625 6.66699 15.254 7.24399 16.3135 8.18649L19.142 5.35799C17.356 3.69349 14.967 2.66699 12.333 2.66699C6.81051 2.66699 2.33301 7.14449 2.33301 12.667C2.33301 18.1895 6.81051 22.667 12.333 22.667C17.8555 22.667 22.333 18.1895 22.333 12.667C22.333 11.9965 22.264 11.342 22.1385 10.7085Z" fill="#FFC107"/>
<path fill-rule="evenodd" clip-rule="evenodd" d="M3.48608 8.01249L6.77158 10.422C7.66058 8.22099 9.81359 6.66699 12.3331 6.66699C13.8626 6.66699 15.2541 7.24399 16.3136 8.18649L19.1421 5.35799C17.3561 3.69349 14.9671 2.66699 12.3331 2.66699C8.49209 2.66699 5.16108 4.83549 3.48608 8.01249Z" fill="#FF3D00"/>
<path fill-rule="evenodd" clip-rule="evenodd" d="M12.3329 22.6668C14.9159 22.6668 17.2629 21.6783 19.0374 20.0708L15.9424 17.4518C14.9384 18.2123 13.6904 18.6668 12.3329 18.6668C9.73192 18.6668 7.52342 17.0083 6.69142 14.6938L3.43042 17.2063C5.08542 20.4448 8.44642 22.6668 12.3329 22.6668Z" fill="#4CAF50"/>
<path fill-rule="evenodd" clip-rule="evenodd" d="M22.1385 10.7085H21.333V10.667H12.333V14.667H17.9845C17.5885 15.7855 16.869 16.75 15.941 17.4525L15.9425 17.4515L19.0375 20.0705C18.8185 20.2695 22.333 17.667 22.333 12.667C22.333 11.9965 22.264 11.342 22.1385 10.7085Z" fill="#1976D2"/>
</g>
</svg>
