<svg width="18" height="18" viewBox="0 0 18 18" fill="none" xmlns="http://www.w3.org/2000/svg">
<path d="M8.99984 0.666504C4.39984 0.666504 0.666504 4.39984 0.666504 8.99984C0.666504 13.5998 4.39984 17.3332 8.99984 17.3332C13.5998 17.3332 17.3332 13.5998 17.3332 8.99984C17.3332 4.39984 13.5998 0.666504 8.99984 0.666504ZM8.99984 13.1665C8.5415 13.1665 8.1665 12.7915 8.1665 12.3332V8.99984C8.1665 8.5415 8.5415 8.1665 8.99984 8.1665C9.45817 8.1665 9.83317 8.5415 9.83317 8.99984V12.3332C9.83317 12.7915 9.45817 13.1665 8.99984 13.1665ZM9.83317 6.49984H8.1665V4.83317H9.83317V6.49984Z" fill="#C3C3C3"/>
</svg>
